<?xml version="1.0" standalone="no"?>
<!DOCTYPE svg PUBLIC "-//W3C//DTD SVG 20010904//EN"
 "http://www.w3.org/TR/2001/REC-SVG-20010904/DTD/svg10.dtd">
<svg version="1.0" xmlns="http://www.w3.org/2000/svg"
 width="500.000000pt" height="500.000000pt" viewBox="0 0 500.000000 500.000000"
 preserveAspectRatio="xMidYMid meet">

<g transform="translate(0.000000,500.000000) scale(0.100000,-0.100000)"
fill="#000000" stroke="none">
<path d="M2413 3581 c-150 -151 -304 -225 -553 -267 -142 -23 -231 -19 -462
22 -27 5 -45 2 -63 -10 l-26 -17 4 -602 c4 -662 4 -657 72 -870 100 -308 308
-598 560 -783 22 -16 42 -31 45 -34 3 -3 121 -83 263 -178 200 -134 263 -171
280 -166 18 6 100 60 505 333 51 35 140 109 199 164 222 213 360 443 442 737
54 194 56 228 56 831 0 542 -1 557 -20 579 -16 17 -27 21 -55 16 -19 -3 -78
-12 -130 -20 -120 -20 -224 -20 -348 -1 -257 38 -455 144 -604 323 -43 52 -65
45 -165 -57z m143 -122 c121 -129 366 -244 594 -279 81 -13 402 -9 433 4 16 8
17 -19 17 -475 -1 -495 -6 -591 -44 -734 -57 -218 -149 -400 -292 -575 -109
-135 -207 -214 -548 -444 -104 -70 -194 -125 -200 -123 -19 8 -417 277 -491
333 -264 199 -449 475 -534 797 -45 169 -52 284 -49 767 3 399 5 454 18 451
39 -12 370 -12 435 -1 155 26 304 78 418 146 62 37 175 127 190 151 12 19 20
16 53 -18z"/>
<path d="M1659 2999 c-21 -21 -21 -25 -16 -457 4 -442 8 -492 43 -527 25 -25
81 -19 100 11 15 22 16 33 6 88 -8 40 -12 189 -12 407 l0 344 114 -3 c109 -4
114 -3 130 19 20 29 20 58 0 87 -13 18 -25 22 -72 22 -31 0 -100 7 -152 15
-121 19 -116 19 -141 -6z"/>
<path d="M1945 1605 c-14 -13 -25 -36 -25 -51 0 -44 125 -155 327 -291 98 -66
196 -132 217 -147 21 -14 48 -26 58 -26 11 0 59 26 106 58 48 32 143 97 212
143 160 108 280 222 280 265 0 33 -35 74 -63 74 -9 0 -55 -35 -103 -77 -47
-43 -164 -131 -260 -195 l-174 -117 -130 89 c-71 49 -147 100 -168 114 -21 13
-78 61 -126 105 -48 45 -96 81 -107 81 -11 0 -31 -11 -44 -25z"/>
</g>
</svg>
