<?xml version="1.0" standalone="no"?>
<!DOCTYPE svg PUBLIC "-//W3C//DTD SVG 20010904//EN"
 "http://www.w3.org/TR/2001/REC-SVG-20010904/DTD/svg10.dtd">
<svg version="1.0" xmlns="http://www.w3.org/2000/svg"
 width="1920.000000pt" height="1920.000000pt" viewBox="0 0 1920.000000 1920.000000"
 preserveAspectRatio="xMidYMid meet">

<g transform="translate(0.000000,1920.000000) scale(0.100000,-0.100000)"
fill="#000000" stroke="none">
<path d="M9624 14091 c-65 -16 -117 -55 -178 -137 -216 -289 -477 -519 -822
-724 -161 -96 -232 -132 -415 -210 -404 -173 -861 -285 -1326 -326 -146 -13
-256 -15 -488 -11 -365 7 -596 33 -900 103 -203 47 -224 49 -286 31 -72 -21
-139 -80 -168 -147 l-22 -50 4 -2048 c3 -2218 1 -2101 58 -2497 220 -1535
1014 -2930 2224 -3906 171 -138 300 -232 585 -424 511 -345 674 -455 1154
-780 275 -186 518 -346 540 -356 55 -25 148 -25 204 1 41 19 149 90 962 640
190 129 491 332 670 453 531 358 760 539 1084 857 371 365 646 705 917 1135
441 700 749 1537 868 2360 68 473 72 638 69 2755 -3 1722 -4 1817 -21 1855
-22 49 -80 111 -128 135 -61 32 -124 34 -224 10 -427 -102 -744 -136 -1199
-127 -398 7 -641 39 -1018 133 -768 192 -1431 597 -1820 1111 -85 111 -110
133 -181 157 -50 17 -92 19 -143 7z m200 -819 c322 -314 674 -544 1151 -752
254 -110 681 -235 1006 -294 315 -58 473 -70 889 -70 403 -1 530 8 818 54 67
11 127 20 133 20 15 0 6 -3563 -10 -3725 -74 -765 -255 -1417 -567 -2045 -370
-742 -884 -1380 -1529 -1896 -166 -133 -247 -189 -1154 -802 l-873 -591 -92
61 c-50 34 -318 215 -596 403 -278 188 -624 422 -770 520 -516 348 -700 494
-1013 804 -246 242 -438 466 -626 729 -513 720 -856 1566 -981 2422 -56 387
-54 276 -57 2273 -2 1016 0 1847 4 1847 4 0 46 -7 93 -15 262 -46 454 -60 845
-60 415 0 535 9 860 65 888 152 1664 526 2205 1063 63 62 119 114 124 115 5 1
68 -55 140 -126z"/>
<path d="M6460 11579 c-55 -25 -105 -71 -133 -124 l-22 -40 -3 -1410 c-2
-1204 0 -1436 13 -1590 17 -196 57 -480 80 -561 32 -111 117 -182 228 -191
117 -10 208 38 259 136 33 63 36 123 13 246 -9 44 -25 148 -37 230 -21 146
-22 182 -25 1444 l-4 1293 23 -5 c142 -35 709 -55 801 -28 103 30 179 132 180
244 1 81 -16 130 -67 185 -66 72 -110 87 -246 84 -255 -5 -594 30 -837 88
-107 25 -166 25 -223 -1z"/>
<path d="M7540 6227 c-19 -6 -58 -34 -87 -63 -84 -83 -103 -188 -54 -298 23
-52 220 -259 387 -405 218 -191 304 -255 879 -643 127 -85 377 -255 557 -376
180 -122 345 -229 365 -238 54 -23 149 -21 204 4 24 11 184 115 354 230 171
116 449 304 619 419 400 269 531 362 685 486 163 131 491 457 522 517 32 62
33 177 2 235 -51 95 -132 145 -236 145 -100 -1 -132 -21 -322 -209 -268 -266
-368 -344 -845 -666 -468 -315 -637 -430 -758 -513 l-123 -84 -57 38 c-322
213 -1161 785 -1247 849 -155 117 -319 261 -470 415 -88 89 -144 138 -173 151
-49 21 -145 24 -202 6z"/>
</g>
</svg>
